{
    "asset" : {
        "generator" : "Khronos glTF Blender I/O v0.9.14",
        "version" : "2.0"
    },
    "scene" : 0,
    "scenes" : [
        {
            "name" : "Scene",
            "nodes" : [
                0,
                1,
                2,
                3,
                4,
                5,
                6,
                7,
                8,
                9,
                10,
                11,
                12
            ]
        }
    ],
    "nodes" : [
        {
            "name" : "Light",
            "rotation" : [
                0.16907575726509094,
                0.7558803558349609,
                -0.27217137813568115,
                0.570947527885437
            ],
            "translation" : [
                4.076245307922363,
                5.903861999511719,
                -1.0054539442062378
            ]
        },
        {
            "name" : "Camera",
            "rotation" : [
                0.483536034822464,
                0.33687159419059753,
                -0.20870360732078552,
                0.7804827094078064
            ],
            "translation" : [
                7.358891487121582,
                4.958309173583984,
                6.925790786743164
            ]
        },
        {
            "mesh" : 0,
            "name" : "ChamferCyl002",
            "rotation" : [
                0.7071068286895752,
                0,
                0,
                0.7071067094802856
            ]
        },
        {
            "mesh" : 1,
            "name" : "Torus001",
            "rotation" : [
                0.7071068286895752,
                0,
                0,
                0.7071067094802856
            ]
        },
        {
            "mesh" : 2,
            "name" : "Tube002",
            "rotation" : [
                0.7071068286895752,
                0,
                0,
                0.7071067094802856
            ]
        },
        {
            "mesh" : 3,
            "name" : "Torus002",
            "rotation" : [
                0.7071068286895752,
                0,
                0,
                0.7071067094802856
            ]
        },
        {
            "mesh" : 4,
            "name" : "ChamferCyl003",
            "rotation" : [
                0.7071068286895752,
                0,
                0,
                0.7071067094802856
            ]
        },
        {
            "mesh" : 5,
            "name" : "Tube001",
            "rotation" : [
                0.7071068286895752,
                0,
                0,
                0.7071067094802856
            ]
        },
        {
            "mesh" : 6,
            "name" : "ChamferCyl004",
            "rotation" : [
                0.7071068286895752,
                0,
                0,
                0.7071067094802856
            ]
        },
        {
            "mesh" : 7,
            "name" : "Box001",
            "rotation" : [
                0.7071068286895752,
                0,
                0,
                0.7071067094802856
            ]
        },
        {
            "mesh" : 8,
            "name" : "ChamferCyl001",
            "rotation" : [
                0.7071068286895752,
                0,
                0,
                0.7071067094802856
            ]
        },
        {
            "name" : "Lamp",
            "rotation" : [
                0.16907575726509094,
                0.7558804154396057,
                -0.27217134833335876,
                0.5709474086761475
            ],
            "translation" : [
                4.076245307922363,
                5.903861999511719,
                -1.0054539442062378
            ]
        },
        {
            "name" : "Camera.001",
            "rotation" : [
                0.483536034822464,
                0.3368716239929199,
                -0.20870371162891388,
                0.7804826498031616
            ],
            "translation" : [
                7.481131553649902,
                5.34366512298584,
                6.507639408111572
            ]
        }
    ],
    "materials" : [
        {
            "doubleSided" : true,
            "name" : "03___Default",
            "pbrMetallicRoughness" : {
                "baseColorFactor" : [
                    0.33730000257492065,
                    0.25099998712539673,
                    0.25099998712539673,
                    1
                ],
                "metallicFactor" : 1,
                "roughnessFactor" : 0.690034806728363
            }
        },
        {
            "doubleSided" : true,
            "name" : "07___Default",
            "pbrMetallicRoughness" : {
                "baseColorFactor" : [
                    0.13729999959468842,
                    0.13729999959468842,
                    0.13729999959468842,
                    1
                ],
                "metallicFactor" : 1,
                "roughnessFactor" : 0.690034806728363
            }
        },
        {
            "doubleSided" : true,
            "name" : "01___Default",
            "pbrMetallicRoughness" : {
                "baseColorFactor" : [
                    0.25099998712539673,
                    0.14900000393390656,
                    0.03530000150203705,
                    1
                ],
                "metallicFactor" : 0,
                "roughnessFactor" : 0.690034806728363
            }
        },
        {
            "doubleSided" : true,
            "name" : "default",
            "pbrMetallicRoughness" : {
                "baseColorFactor" : [
                    1,
                    1,
                    1,
                    1
                ],
                "metallicFactor" : 0,
                "roughnessFactor" : 0.690034806728363
            }
        }
    ],
    "meshes" : [
        {
            "name" : "ChamferCyl002",
            "primitives" : [
                {
                    "attributes" : {
                        "POSITION" : 0,
                        "NORMAL" : 1,
                        "TEXCOORD_0" : 2
                    },
                    "indices" : 3,
                    "material" : 0
                }
            ]
        },
        {
            "name" : "Torus001",
            "primitives" : [
                {
                    "attributes" : {
                        "POSITION" : 4,
                        "NORMAL" : 5,
                        "TEXCOORD_0" : 6
                    },
                    "indices" : 7,
                    "material" : 1
                }
            ]
        },
        {
            "name" : "Tube002",
            "primitives" : [
                {
                    "attributes" : {
                        "POSITION" : 8,
                        "NORMAL" : 9,
                        "TEXCOORD_0" : 10
                    },
                    "indices" : 11,
                    "material" : 2
                }
            ]
        },
        {
            "name" : "Torus002",
            "primitives" : [
                {
                    "attributes" : {
                        "POSITION" : 12,
                        "NORMAL" : 13,
                        "TEXCOORD_0" : 14
                    },
                    "indices" : 15,
                    "material" : 1
                }
            ]
        },
        {
            "name" : "ChamferCyl003",
            "primitives" : [
                {
                    "attributes" : {
                        "POSITION" : 16,
                        "NORMAL" : 17,
                        "TEXCOORD_0" : 18
                    },
                    "indices" : 19,
                    "material" : 0
                }
            ]
        },
        {
            "name" : "Tube001",
            "primitives" : [
                {
                    "attributes" : {
                        "POSITION" : 20,
                        "NORMAL" : 21,
                        "TEXCOORD_0" : 22
                    },
                    "indices" : 23,
                    "material" : 2
                }
            ]
        },
        {
            "name" : "ChamferCyl004",
            "primitives" : [
                {
                    "attributes" : {
                        "POSITION" : 24,
                        "NORMAL" : 25,
                        "TEXCOORD_0" : 26
                    },
                    "indices" : 27,
                    "material" : 0
                }
            ]
        },
        {
            "name" : "Box001",
            "primitives" : [
                {
                    "attributes" : {
                        "POSITION" : 28,
                        "NORMAL" : 29,
                        "TEXCOORD_0" : 30
                    },
                    "indices" : 31,
                    "material" : 3
                }
            ]
        },
        {
            "name" : "ChamferCyl001",
            "primitives" : [
                {
                    "attributes" : {
                        "POSITION" : 32,
                        "NORMAL" : 33,
                        "TEXCOORD_0" : 34
                    },
                    "indices" : 3,
                    "material" : 0
                }
            ]
        }
    ],
    "accessors" : [
        {
            "bufferView" : 0,
            "componentType" : 5126,
            "count" : 120,
            "max" : [
                0.6208999752998352,
                1.240399956703186,
                -4.378300189971924
            ],
            "min" : [
                -1.9544999599456787,
                -1.2089999914169312,
                -5.191199779510498
            ],
            "type" : "VEC3"
        },
        {
            "bufferView" : 1,
            "componentType" : 5126,
            "count" : 120,
            "type" : "VEC3"
        },
        {
            "bufferView" : 2,
            "componentType" : 5126,
            "count" : 120,
            "type" : "VEC2"
        },
        {
            "bufferView" : 3,
            "componentType" : 5123,
            "count" : 300,
            "type" : "SCALAR"
        },
        {
            "bufferView" : 4,
            "componentType" : 5126,
            "count" : 428,
            "max" : [
                0.3073999881744385,
                5.171299934387207,
                -72.35590362548828
            ],
            "min" : [
                -1.6770000457763672,
                4.991300106048584,
                -74.34030151367188
            ],
            "type" : "VEC3"
        },
        {
            "bufferView" : 5,
            "componentType" : 5126,
            "count" : 428,
            "type" : "VEC3"
        },
        {
            "bufferView" : 6,
            "componentType" : 5126,
            "count" : 428,
            "type" : "VEC2"
        },
        {
            "bufferView" : 7,
            "componentType" : 5123,
            "count" : 1728,
            "type" : "SCALAR"
        },
        {
            "bufferView" : 8,
            "componentType" : 5126,
            "count" : 250,
            "max" : [
                -0.30059999227523804,
                17.80150032043457,
                -73.32420349121094
            ],
            "min" : [
                -1.0823999643325806,
                -0.012000000104308128,
                -74.10169982910156
            ],
            "type" : "VEC3"
        },
        {
            "bufferView" : 9,
            "componentType" : 5126,
            "count" : 250,
            "type" : "VEC3"
        },
        {
            "bufferView" : 10,
            "componentType" : 5126,
            "count" : 250,
            "type" : "VEC2"
        },
        {
            "bufferView" : 11,
            "componentType" : 5123,
            "count" : 900,
            "type" : "SCALAR"
        },
        {
            "bufferView" : 12,
            "componentType" : 5126,
            "count" : 428,
            "max" : [
                0.3073999881744385,
                13.142900466918945,
                -72.35590362548828
            ],
            "min" : [
                -1.6770000457763672,
                12.962800025939941,
                -74.34030151367188
            ],
            "type" : "VEC3"
        },
        {
            "bufferView" : 13,
            "componentType" : 5126,
            "count" : 428,
            "type" : "VEC3"
        },
        {
            "bufferView" : 14,
            "componentType" : 5126,
            "count" : 428,
            "type" : "VEC2"
        },
        {
            "bufferView" : 15,
            "componentType" : 5123,
            "count" : 1728,
            "type" : "SCALAR"
        },
        {
            "bufferView" : 16,
            "componentType" : 5126,
            "count" : 102,
            "max" : [
                0.18119999766349792,
                0.8222000002861023,
                -76.402099609375
            ],
            "min" : [
                -1.514799952507019,
                -0.7907999753952026,
                -77.90360260009766
            ],
            "type" : "VEC3"
        },
        {
            "bufferView" : 17,
            "componentType" : 5126,
            "count" : 102,
            "type" : "VEC3"
        },
        {
            "bufferView" : 18,
            "componentType" : 5126,
            "count" : 102,
            "type" : "VEC2"
        },
        {
            "bufferView" : 19,
            "componentType" : 5123,
            "count" : 360,
            "type" : "SCALAR"
        },
        {
            "bufferView" : 20,
            "componentType" : 5126,
            "count" : 292,
            "max" : [
                -0.03959999978542328,
                0.6593999862670898,
                -4.914700031280518
            ],
            "min" : [
                -1.2990000247955322,
                -0.6193000078201294,
                -76.51100158691406
            ],
            "type" : "VEC3"
        },
        {
            "bufferView" : 21,
            "componentType" : 5126,
            "count" : 292,
            "type" : "VEC3"
        },
        {
            "bufferView" : 22,
            "componentType" : 5126,
            "count" : 292,
            "type" : "VEC2"
        },
        {
            "bufferView" : 23,
            "componentType" : 5123,
            "count" : 1080,
            "type" : "SCALAR"
        },
        {
            "bufferView" : 24,
            "componentType" : 5126,
            "count" : 98,
            "max" : [
                -0.12470000237226486,
                18.231000900268555,
                -73.17769622802734
            ],
            "min" : [
                -1.2553000450134277,
                17.350299835205078,
                -74.25289916992188
            ],
            "type" : "VEC3"
        },
        {
            "bufferView" : 25,
            "componentType" : 5126,
            "count" : 98,
            "type" : "VEC3"
        },
        {
            "bufferView" : 26,
            "componentType" : 5126,
            "count" : 98,
            "type" : "VEC2"
        },
        {
            "bufferView" : 27,
            "componentType" : 5123,
            "count" : 300,
            "type" : "SCALAR"
        },
        {
            "bufferView" : 28,
            "componentType" : 5126,
            "count" : 44,
            "max" : [
                -0.8639000058174133,
                15.696800231933594,
                -53.46820068359375
            ],
            "min" : [
                -0.875,
                2.6198999881744385,
                -72.81880187988281
            ],
            "type" : "VEC3"
        },
        {
            "bufferView" : 29,
            "componentType" : 5126,
            "count" : 44,
            "type" : "VEC3"
        },
        {
            "bufferView" : 30,
            "componentType" : 5126,
            "count" : 44,
            "type" : "VEC2"
        },
        {
            "bufferView" : 31,
            "componentType" : 5123,
            "count" : 96,
            "type" : "SCALAR"
        },
        {
            "bufferView" : 32,
            "componentType" : 5126,
            "count" : 120,
            "max" : [
                0.2125999927520752,
                0.8519999980926514,
                -4.804900169372559
            ],
            "min" : [
                -1.5462000370025635,
                -0.8206999897956848,
                -5.617800235748291
            ],
            "type" : "VEC3"
        },
        {
            "bufferView" : 33,
            "componentType" : 5126,
            "count" : 120,
            "type" : "VEC3"
        },
        {
            "bufferView" : 34,
            "componentType" : 5126,
            "count" : 120,
            "type" : "VEC2"
        }
    ],
    "bufferViews" : [
        {
            "buffer" : 0,
            "byteLength" : 1440,
            "byteOffset" : 0
        },
        {
            "buffer" : 0,
            "byteLength" : 1440,
            "byteOffset" : 1440
        },
        {
            "buffer" : 0,
            "byteLength" : 960,
            "byteOffset" : 2880
        },
        {
            "buffer" : 0,
            "byteLength" : 600,
            "byteOffset" : 3840
        },
        {
            "buffer" : 0,
            "byteLength" : 5136,
            "byteOffset" : 4440
        },
        {
            "buffer" : 0,
            "byteLength" : 5136,
            "byteOffset" : 9576
        },
        {
            "buffer" : 0,
            "byteLength" : 3424,
            "byteOffset" : 14712
        },
        {
            "buffer" : 0,
            "byteLength" : 3456,
            "byteOffset" : 18136
        },
        {
            "buffer" : 0,
            "byteLength" : 3000,
            "byteOffset" : 21592
        },
        {
            "buffer" : 0,
            "byteLength" : 3000,
            "byteOffset" : 24592
        },
        {
            "buffer" : 0,
            "byteLength" : 2000,
            "byteOffset" : 27592
        },
        {
            "buffer" : 0,
            "byteLength" : 1800,
            "byteOffset" : 29592
        },
        {
            "buffer" : 0,
            "byteLength" : 5136,
            "byteOffset" : 31392
        },
        {
            "buffer" : 0,
            "byteLength" : 5136,
            "byteOffset" : 36528
        },
        {
            "buffer" : 0,
            "byteLength" : 3424,
            "byteOffset" : 41664
        },
        {
            "buffer" : 0,
            "byteLength" : 3456,
            "byteOffset" : 45088
        },
        {
            "buffer" : 0,
            "byteLength" : 1224,
            "byteOffset" : 48544
        },
        {
            "buffer" : 0,
            "byteLength" : 1224,
            "byteOffset" : 49768
        },
        {
            "buffer" : 0,
            "byteLength" : 816,
            "byteOffset" : 50992
        },
        {
            "buffer" : 0,
            "byteLength" : 720,
            "byteOffset" : 51808
        },
        {
            "buffer" : 0,
            "byteLength" : 3504,
            "byteOffset" : 52528
        },
        {
            "buffer" : 0,
            "byteLength" : 3504,
            "byteOffset" : 56032
        },
        {
            "buffer" : 0,
            "byteLength" : 2336,
            "byteOffset" : 59536
        },
        {
            "buffer" : 0,
            "byteLength" : 2160,
            "byteOffset" : 61872
        },
        {
            "buffer" : 0,
            "byteLength" : 1176,
            "byteOffset" : 64032
        },
        {
            "buffer" : 0,
            "byteLength" : 1176,
            "byteOffset" : 65208
        },
        {
            "buffer" : 0,
            "byteLength" : 784,
            "byteOffset" : 66384
        },
        {
            "buffer" : 0,
            "byteLength" : 600,
            "byteOffset" : 67168
        },
        {
            "buffer" : 0,
            "byteLength" : 528,
            "byteOffset" : 67768
        },
        {
            "buffer" : 0,
            "byteLength" : 528,
            "byteOffset" : 68296
        },
        {
            "buffer" : 0,
            "byteLength" : 352,
            "byteOffset" : 68824
        },
        {
            "buffer" : 0,
            "byteLength" : 192,
            "byteOffset" : 69176
        },
        {
            "buffer" : 0,
            "byteLength" : 1440,
            "byteOffset" : 69368
        },
        {
            "buffer" : 0,
            "byteLength" : 1440,
            "byteOffset" : 70808
        },
        {
            "buffer" : 0,
            "byteLength" : 960,
            "byteOffset" : 72248
        }
    ],
    "buffers" : [
        {
            "byteLength" : 73208,
            "uri" : "data:application/octet-stream;base64,"
        }
    ]
}
